<svg width="64" height="64" viewBox="0 0 64 64" fill="none" xmlns="http://www.w3.org/2000/svg">
<g clip-path="url(#clip0_44072_2617)">
<path d="M26.6289 11.2565C29.3328 8.55282 33.7211 8.55282 36.425 11.2565C39.1289 13.9601 39.1289 18.348 36.425 21.0517L28.2634 29.2125L34.796 35.7445L42.9576 27.5837C45.6614 24.88 50.0497 24.88 52.7536 27.5837C55.4575 30.2874 55.4575 34.6753 52.7536 37.3789L38.0595 52.0718C34.4525 55.6785 28.607 55.6785 24.9999 52.0718L11.9404 39.0133C8.33331 35.4066 8.33331 29.5616 11.9404 25.9549L26.6345 11.262M20.0964 4.73002L5.40225 19.4229C-1.80075 26.6252 -1.80075 38.3374 5.40225 45.5398L18.4618 58.5982C25.6648 65.8006 37.378 65.8006 44.581 58.5982L59.2751 43.9054C65.575 37.6061 65.575 27.351 59.2751 21.0517C56.0781 17.855 51.8726 16.2815 47.6727 16.3258C47.7171 12.1318 46.1435 7.92122 42.9465 4.72448C36.6466 -1.57483 26.3907 -1.57483 20.0908 4.72448L20.0964 4.73002Z" fill="#B771E5"/>
</g>
<defs>
<clipPath id="clip0_44072_2617">
<rect width="64" height="64" fill="white"/>
</clipPath>
</defs>
</svg>
