<svg width="52" height="52" viewBox="0 0 52 52" fill="none" xmlns="http://www.w3.org/2000/svg" class="icon">
  <style>
    .icon-bg {
      opacity: 0.2;
    }
    .icon-main {
      stroke: currentColor;
    }
  </style>
  
  <!-- Background circle with 20% opacity -->
  <path d="M0 26C0 11.6406 11.6406 0 26 0C40.3594 0 52 11.6406 52 26C52 40.3594 40.3594 52 26 52C11.6406 52 0 40.3594 0 26Z" class="icon-bg" fill="currentColor"/>
  
  <!-- Main icon paths -->
  <path d="M38.9732 34L28.3066 15.3333C28.074 14.9229 27.7367 14.5816 27.3291 14.3441C26.9216 14.1066 26.4583 13.9814 25.9866 13.9814C25.5149 13.9814 25.0516 14.1066 24.644 14.3441C24.2364 14.5816 23.8992 14.9229 23.6666 15.3333L12.9999 34C12.7648 34.4071 12.6415 34.8692 12.6426 35.3393C12.6436 35.8095 12.7689 36.271 13.0058 36.6771C13.2427 37.0832 13.5828 37.4194 13.9915 37.6517C14.4002 37.8841 14.8631 38.0042 15.3332 38H36.6666C37.1344 37.9995 37.5939 37.8759 37.9989 37.6417C38.404 37.4074 38.7402 37.0708 38.9739 36.6655C39.2076 36.2602 39.3306 35.8005 39.3305 35.3326C39.3304 34.8648 39.2072 34.4052 38.9732 34Z" class="icon-main" stroke-width="2.5" stroke-linecap="round" stroke-linejoin="round"/>
  <path d="M26 22V27.3333" class="icon-main" stroke-width="2.5" stroke-linecap="round" stroke-linejoin="round"/>
  <path d="M26 32.6665H26.0133" class="icon-main" stroke-width="2.5" stroke-linecap="round" stroke-linejoin="round"/>
</svg>